<svg class="ldi-9e7nri" width="200px"  height="200px"  xmlns="http://www.w3.org/2000/svg" xmlns:xlink="http://www.w3.org/1999/xlink" viewBox="0 0 100 100" preserveAspectRatio="xMidYMid" style="background: none;"><!--?xml version="1.0" encoding="utf-8"?--><!--Generator: Adobe Illustrator 21.0.0, SVG Export Plug-In . SVG Version: 6.00 Build 0)--><svg version="1.1" id="圖層_1" xmlns="http://www.w3.org/2000/svg" xmlns:xlink="http://www.w3.org/1999/xlink" x="0px" y="0px" viewBox="0 0 100 100" style="transform-origin: 50px 50px 0px;" xml:space="preserve"><g style="transform-origin: 50px 50px 0px;"><g style="transform-origin: 50px 50px 0px; transform: scale(0.6);"><g style="transform-origin: 50px 50px 0px;"><g><style type="text/css" class="ld ld-breath" style="transform-origin: 50px 50px 0px; animation-duration: 1s; animation-delay: -1s; animation-direction: normal;">.st0{fill-rule:evenodd;clip-rule:evenodd;fill:#FFDC6C;} .st1{fill:none;stroke:#F8B26A;stroke-width:2.6883;stroke-linecap:round;stroke-miterlimit:10;} .st2{fill:#353035;} .st3{fill:#FFDC6C;} .st4{fill-rule:evenodd;clip-rule:evenodd;fill:#E15B64;} .st5{fill:#F8B26A;} .st6{fill-rule:evenodd;clip-rule:evenodd;fill:#A0C8D7;} .st7{fill-rule:evenodd;clip-rule:evenodd;fill:#B5B5B5;} .st8{fill:#A0C8D7;} .st9{fill-rule:evenodd;clip-rule:evenodd;fill:#F8B26A;} .st10{fill-rule:evenodd;clip-rule:evenodd;fill:#E0E0E0;stroke:#000000;stroke-width:3.8366;stroke-linecap:round;stroke-miterlimit:10;} .st11{fill-rule:evenodd;clip-rule:evenodd;fill:#FFDC6C;stroke:#F47E60;stroke-width:4;stroke-miterlimit:10;} .st12{fill-rule:evenodd;clip-rule:evenodd;fill:#E0E0E0;stroke:#000000;stroke-width:5;stroke-linecap:round;stroke-miterlimit:10;} .st13{fill:#B5B5B5;} .st14{fill-rule:evenodd;clip-rule:evenodd;fill:#E0E0E0;} .st15{fill-rule:evenodd;clip-rule:evenodd;fill:#E0E0E0;stroke:#000000;stroke-width:6.8207;stroke-linecap:round;stroke-miterlimit:10;} .st16{fill:#E0E0E0;} .st17{fill:#E0E0E0;stroke:#FFFFFF;stroke-width:3;stroke-miterlimit:10;} .st18{fill:#77A4BD;} .st19{fill-rule:evenodd;clip-rule:evenodd;fill:#E0E0E0;stroke:#000000;stroke-width:4;stroke-linecap:round;stroke-miterlimit:10;} .st20{fill:#F8B26A;stroke:#000000;stroke-width:3;stroke-miterlimit:10;} .st21{fill:none;stroke:#F8B26A;stroke-width:4.5884;stroke-linecap:round;stroke-miterlimit:10;} .st22{fill:#333333;} .st23{fill:#666666;} .st24{fill:#F47E60;} .st25{fill:#E15B64;} .st26{fill:#C33737;} .st27{fill:none;stroke:#77A4BD;stroke-width:4;stroke-linecap:round;stroke-miterlimit:10;} .st28{fill:none;stroke:#A0C8D7;stroke-width:4;stroke-linecap:round;stroke-miterlimit:10;} .st29{fill:none;stroke:#77A4BD;stroke-width:3.5;stroke-linecap:round;stroke-miterlimit:10;} .st30{fill:none;stroke:#A0C8D7;stroke-width:3.5;stroke-linecap:round;stroke-miterlimit:10;} .st31{fill-rule:evenodd;clip-rule:evenodd;fill:#F5E6C8;} .st32{fill:#E6E6E6;} .st33{fill:none;} .st34{fill:#849B87;} .st35{fill:none;stroke:#C33737;stroke-width:3;stroke-linecap:round;stroke-miterlimit:10;} .st36{fill:#F5E6C8;} .st37{fill:none;stroke:#F8B26A;stroke-width:1.8792;stroke-linecap:round;stroke-miterlimit:10;} .st38{fill:#998675;} .st39{fill:#736357;} .st40{fill-rule:evenodd;clip-rule:evenodd;fill:#80AAF3;} .st41{fill:none;stroke:#A0C8D7;stroke-width:3;stroke-linecap:round;stroke-miterlimit:10;} .st42{fill:none;stroke:#77A4BD;stroke-width:3;stroke-linecap:round;stroke-miterlimit:10;} .st43{fill:none;stroke:#F5E169;stroke-width:4.588;stroke-linecap:round;stroke-miterlimit:10;} .st44{fill:none;stroke:#F8B26A;stroke-width:4.588;stroke-linecap:round;stroke-miterlimit:10;} .st45{fill:none;stroke:#F47E60;stroke-width:4.588;stroke-linecap:round;stroke-miterlimit:10;} .st46{fill:none;stroke:#E15B64;stroke-width:4.588;stroke-linecap:round;stroke-miterlimit:10;} .st47{fill:none;stroke:#E15B64;stroke-width:8;stroke-miterlimit:10;} .st48{fill:none;stroke:#F8B26A;stroke-width:8;stroke-miterlimit:10;} .st49{fill:none;stroke:#ABBD81;stroke-width:8;stroke-miterlimit:10;} .st50{fill:none;stroke:#E15B64;stroke-width:4;stroke-miterlimit:10;} .st51{fill:none;stroke:#F8B26A;stroke-width:4;stroke-miterlimit:10;} .st52{fill:none;stroke:#F5E6C8;stroke-width:4;stroke-miterlimit:10;} .st53{fill:none;stroke:#ABBD81;stroke-width:4;stroke-miterlimit:10;} .st54{fill:none;stroke:#A0C8D7;stroke-width:4;stroke-miterlimit:10;} .st55{fill:none;stroke:#B295E3;stroke-width:4;stroke-miterlimit:10;}</style><g class="ld ld-breath" style="transform-origin: 50px 50px 0px; animation-duration: 1s; animation-delay: -0.970588s; animation-direction: normal;"><path class="st7" d="M73.6,32.8c0.5-1.7,0.8-3.4,0.8-5.3c0-9.6-7.8-17.5-17.5-17.5c-6.7,0-12.5,3.8-15.4,9.3 c-1.1-0.3-2.3-0.5-3.5-0.5c-6.4,0-11.6,5.2-11.6,11.6c0,0.8,0.1,1.6,0.2,2.4c-5.9,0.9-10.4,6-10.4,12.2c0,6.8,5.5,12.4,12.4,12.4 h42.9c6.8,0,12.4-5.5,12.4-12.4C83.8,38.8,79.4,33.7,73.6,32.8z" fill="#8b8989" style="fill: rgb(139, 137, 137);"></path></g><g style="transform-origin: 50px 50px 0px;"><g><g style="transform-origin: 50px 50px 0px;"><g><g class="ld ld-breath" style="transform-origin: 50px 50px 0px; animation-duration: 1s; animation-delay: -0.941176s; animation-direction: normal;"><path class="st18" d="M28.3,66.8l1.5-3.8c0.4-1-0.1-2.1-1.1-2.5c-1-0.4-2.1,0.1-2.5,1.1l-1.5,3.8c-0.4,1,0.1,2.1,1.1,2.5 c0.2,0.1,0.5,0.1,0.7,0.1C27.3,68,28,67.5,28.3,66.8z" fill="#4ba0cf" style="fill: rgb(75, 160, 207);"></path></g></g></g><g style="transform-origin: 50px 50px 0px;"><g><g class="ld ld-breath" style="transform-origin: 50px 50px 0px; animation-duration: 1s; animation-delay: -0.911765s; animation-direction: normal;"><path class="st18" d="M35.7,72.9l3.8-9.9c0.4-1-0.1-2.1-1.1-2.5c-1-0.4-2.1,0.1-2.5,1.1l-3.8,9.9c-0.4,1,0.1,2.1,1.1,2.5 c0.2,0.1,0.5,0.1,0.7,0.1C34.7,74.1,35.5,73.6,35.7,72.9z" fill="#4ba0cf" style="fill: rgb(75, 160, 207);"></path></g></g></g><g style="transform-origin: 50px 50px 0px;"><g><g class="ld ld-breath" style="transform-origin: 50px 50px 0px; animation-duration: 1s; animation-delay: -0.882353s; animation-direction: normal;"><path class="st18" d="M43.2,79l6.1-16c0.4-1-0.1-2.1-1.1-2.5c-1-0.4-2.1,0.1-2.5,1.1l-6.1,16c-0.4,1,0.1,2.1,1.1,2.5 c0.2,0.1,0.5,0.1,0.7,0.1C42.1,80.2,42.9,79.7,43.2,79z" fill="#4ba0cf" style="fill: rgb(75, 160, 207);"></path></g></g></g><g style="transform-origin: 50px 50px 0px;"><g><g class="ld ld-breath" style="transform-origin: 50px 50px 0px; animation-duration: 1s; animation-delay: -0.852941s; animation-direction: normal;"><path class="st18" d="M57,67.9l1.9-4.9c0.4-1-0.1-2.1-1.1-2.5c-1-0.4-2.1,0.1-2.5,1.1l-1.9,4.9c-0.4,1,0.1,2.1,1.1,2.5 c0.2,0.1,0.5,0.1,0.7,0.1C56,69.2,56.8,68.7,57,67.9z" fill="#4ba0cf" style="fill: rgb(75, 160, 207);"></path></g></g></g><g style="transform-origin: 50px 50px 0px;"><g><g class="ld ld-breath" style="transform-origin: 50px 50px 0px; animation-duration: 1s; animation-delay: -0.823529s; animation-direction: normal;"><path class="st18" d="M61.8,81l6.5-18.1c0.4-1-0.2-2.1-1.2-2.5c-1-0.4-2.1,0.2-2.5,1.2l-6.5,18.1c-0.4,1,0.2,2.1,1.2,2.5 c0.2,0.1,0.4,0.1,0.7,0.1C60.8,82.3,61.5,81.8,61.8,81z" fill="#4ba0cf" style="fill: rgb(75, 160, 207);"></path></g></g></g><g style="transform-origin: 50px 50px 0px;"><g><g class="ld ld-breath" style="transform-origin: 50px 50px 0px; animation-duration: 1s; animation-delay: -0.794118s; animation-direction: normal;"><path class="st18" d="M71.9,75.3l3.8-11.7c0.3-1-0.2-2.1-1.2-2.4c-1-0.3-2.1,0.2-2.4,1.2l-3.8,11.7c-0.3,1,0.2,2.1,1.2,2.4 c0.2,0.1,0.4,0.1,0.6,0.1C70.9,76.7,71.6,76.1,71.9,75.3z" fill="#4ba0cf" style="fill: rgb(75, 160, 207);"></path></g></g></g><g style="transform-origin: 50px 50px 0px;"><g><g class="ld ld-breath" style="transform-origin: 50px 50px 0px; animation-duration: 1s; animation-delay: -0.764706s; animation-direction: normal;"><path class="st18" d="M20.1,88.8l5.7-15.4c0.4-1-0.1-2.1-1.1-2.5c-1-0.4-2.1,0.1-2.5,1.1l-5.7,15.4c-0.4,1,0.1,2.1,1.1,2.5 c0.2,0.1,0.4,0.1,0.7,0.1C19.1,90,19.8,89.5,20.1,88.8z" fill="#4ba0cf" style="fill: rgb(75, 160, 207);"></path></g></g></g><g style="transform-origin: 50px 50px 0px;"><g><g class="ld ld-breath" style="transform-origin: 50px 50px 0px; animation-duration: 1s; animation-delay: -0.735294s; animation-direction: normal;"><path class="st18" d="M29.7,88.8L33,80c0.4-1-0.1-2.1-1.1-2.5c-1-0.4-2.1,0.1-2.5,1.1l-3.4,8.8c-0.4,1,0.1,2.1,1.1,2.5 c0.2,0.1,0.5,0.1,0.7,0.1C28.7,90,29.4,89.5,29.7,88.8z" fill="#4ba0cf" style="fill: rgb(75, 160, 207);"></path></g></g></g><g style="transform-origin: 50px 50px 0px;"><g><g class="ld ld-breath" style="transform-origin: 50px 50px 0px; animation-duration: 1s; animation-delay: -0.705882s; animation-direction: normal;"><path class="st18" d="M39.4,88.8l0.9-2.4c0.4-1-0.1-2.1-1.1-2.5c-1-0.4-2.1,0.1-2.5,1.1l-0.9,2.4c-0.4,1,0.1,2.1,1.1,2.5 c0.2,0.1,0.5,0.1,0.7,0.1C38.4,90,39.2,89.5,39.4,88.8z" fill="#4ba0cf" style="fill: rgb(75, 160, 207);"></path></g></g></g><g style="transform-origin: 50px 50px 0px;"><g><g class="ld ld-breath" style="transform-origin: 50px 50px 0px; animation-duration: 1s; animation-delay: -0.676471s; animation-direction: normal;"><path class="st18" d="M49,88.8l5.3-13.5c0.4-1-0.1-2.1-1.1-2.5c-1-0.4-2.1,0.1-2.5,1.1l-5.3,13.5c-0.4,1,0.1,2.1,1.1,2.5 C46.8,90,47,90,47.2,90C48,90,48.7,89.5,49,88.8z" fill="#4ba0cf" style="fill: rgb(75, 160, 207);"></path></g></g></g><g style="transform-origin: 50px 50px 0px;"><g><g class="ld ld-breath" style="transform-origin: 50px 50px 0px; animation-duration: 1s; animation-delay: -0.647059s; animation-direction: normal;"><path class="st18" d="M68.6,88.8l2.6-6.8c0.4-1-0.1-2.1-1.1-2.5c-1-0.4-2.1,0.1-2.5,1.1L65,87.4c-0.4,1,0.1,2.1,1.1,2.5 c0.2,0.1,0.5,0.1,0.7,0.1C67.6,90,68.3,89.5,68.6,88.8z" fill="#4ba0cf" style="fill: rgb(75, 160, 207);"></path></g></g></g></g></g><metadata xmlns:d="https://loading.io/stock/" class="ld ld-breath" style="transform-origin: 50px 50px 0px; animation-duration: 1s; animation-delay: -0.617647s; animation-direction: normal;">
<d:name class="ld ld-breath" style="transform-origin: 50px 50px 0px; animation-duration: 1s; animation-delay: -0.588235s; animation-direction: normal;">rain</d:name>
<d:tags class="ld ld-breath" style="transform-origin: 50px 50px 0px; animation-duration: 1s; animation-delay: -0.558824s; animation-direction: normal;">rainy,water,precipitation,fall,storm,thunder,rain,weather</d:tags>
<d:license class="ld ld-breath" style="transform-origin: 50px 50px 0px; animation-duration: 1s; animation-delay: -0.529412s; animation-direction: normal;">rf</d:license>
<d:slug class="ld ld-breath" style="transform-origin: 50px 50px 0px; animation-duration: 1s; animation-delay: -0.5s; animation-direction: normal;">9e7nri</d:slug>
</metadata></g></g></g></g><style type="text/css" class="ld ld-breath" style="transform-origin: 50px 50px 0px; animation-duration: 1s; animation-delay: -0.470588s; animation-direction: normal;">@keyframes ld-breath {
  0% {
    -webkit-transform: scale(0.86);
    transform: scale(0.86);
  }
  50% {
    -webkit-transform: scale(1.06);
    transform: scale(1.06);
  }
  100% {
    -webkit-transform: scale(0.86);
    transform: scale(0.86);
  }
}
@-webkit-keyframes ld-breath {
  0% {
    -webkit-transform: scale(0.86);
    transform: scale(0.86);
  }
  50% {
    -webkit-transform: scale(1.06);
    transform: scale(1.06);
  }
  100% {
    -webkit-transform: scale(0.86);
    transform: scale(0.86);
  }
}
.ld.ld-breath {
  -webkit-animation: ld-breath 1s infinite;
  animation: ld-breath 1s infinite;
}
</style></svg></svg>